<svg width="143" height="36" viewBox="0 0 143 36" fill="none" xmlns="http://www.w3.org/2000/svg">
<rect width="142.22" height="35.0552" transform="translate(0 0.0585938)" fill="#263656"/>
<path d="M30.9492 20.0499C30.9492 19.759 31.1831 19.5742 31.477 19.5742C31.7816 19.5742 32.0176 19.7611 32.0176 20.0499V20.2007C32.0176 20.4789 31.7838 20.6764 31.477 20.6764C31.1831 20.6764 30.9492 20.4789 30.9492 20.2007V20.0499ZM31.0307 22.3266C31.0307 22.0824 31.2303 21.8742 31.477 21.8742C31.7344 21.8742 31.9339 22.0717 31.9339 22.3266V27.5468C31.9339 27.8016 31.7451 27.9991 31.4877 27.9991C31.2303 27.9991 31.0307 27.8016 31.0307 27.5468V22.3266Z" fill="white"/>
<path d="M34.1953 22.3271C34.1953 22.0829 34.3948 21.8748 34.6415 21.8748C34.899 21.8748 35.0985 22.0723 35.0985 22.3271V22.9791C35.4975 22.3271 36.1326 21.8047 37.1774 21.8047C38.6448 21.8047 39.5029 22.7816 39.5029 24.2109V27.5473C39.5029 27.8021 39.3034 27.9996 39.0567 27.9996C38.7992 27.9996 38.5997 27.8021 38.5997 27.5473V24.4318C38.5997 23.3168 37.9883 22.6181 36.9199 22.6181C35.8751 22.6181 35.1006 23.3741 35.1006 24.5018V27.5473C35.1006 27.8021 34.9119 27.9996 34.6544 27.9996C34.397 27.9996 34.1975 27.8021 34.1975 27.5473V22.3271H34.1953Z" fill="white"/>
<path d="M41.5302 26.349V22.7216H41.0367C40.8243 22.7216 40.6377 22.5347 40.6377 22.3266C40.6377 22.1057 40.8243 21.9316 41.0367 21.9316H41.5302V20.5129C41.5302 20.2687 41.7189 20.0605 41.9764 20.0605C42.2231 20.0605 42.4334 20.2687 42.4334 20.5129V21.9316H44.0059C44.229 21.9316 44.4156 22.1185 44.4156 22.3266C44.4156 22.5475 44.229 22.7216 44.0059 22.7216H42.4334V26.2321C42.4334 26.9648 42.8431 27.2324 43.4545 27.2324C43.772 27.2324 43.9351 27.1517 44.0059 27.1517C44.2161 27.1517 44.3942 27.3259 44.3942 27.5361C44.3942 27.6997 44.2891 27.8271 44.1368 27.8844C43.8793 27.9885 43.5961 28.0479 43.2443 28.0479C42.2703 28.0458 41.5302 27.5701 41.5302 26.349Z" fill="white"/>
<path d="M48.4062 28.0823C46.7392 28.0823 45.377 26.8144 45.377 24.9562V24.9328C45.377 23.2019 46.6105 21.8066 48.2882 21.8066C50.0838 21.8066 51.1072 23.2593 51.1072 24.8521C51.1072 25.0963 50.9077 25.2705 50.6845 25.2705H46.293C46.4217 26.5723 47.3507 27.305 48.4298 27.305C49.1806 27.305 49.7342 27.0141 50.1804 26.6084C50.2512 26.5511 50.3327 26.5044 50.4378 26.5044C50.6609 26.5044 50.8369 26.6785 50.8369 26.8888C50.8369 26.9928 50.7897 27.099 50.6953 27.1797C50.1203 27.7213 49.4381 28.0823 48.4062 28.0823ZM50.2018 24.6057C50.1074 23.5141 49.4746 22.5606 48.2646 22.5606C47.2069 22.5606 46.4089 23.4334 46.2909 24.6057H50.2018Z" fill="white"/>
<path d="M52.675 22.3273C52.675 22.0831 52.8745 21.8749 53.1212 21.8749C53.3787 21.8749 53.5782 22.0724 53.5782 22.3273V23.455C54.0244 22.4547 54.904 21.8516 55.6678 21.8516C55.9381 21.8516 56.114 22.0491 56.114 22.3039C56.114 22.5482 55.9488 22.7223 55.715 22.7563C54.5415 22.8964 53.5782 23.7672 53.5782 25.5002V27.5453C53.5782 27.7896 53.3894 27.9977 53.132 27.9977C52.8745 27.9977 52.6729 27.8002 52.6729 27.5453V22.3273H52.675Z" fill="white"/>
<path d="M56.6504 26.1987V26.1753C56.6504 24.9075 57.708 24.2342 59.2463 24.2342C60.0207 24.2342 60.5721 24.3383 61.1127 24.4891V24.281C61.1127 23.2 60.4434 22.6414 59.3042 22.6414C58.6928 22.6414 58.1779 22.7816 57.7316 22.9791C57.6737 23.0025 57.6136 23.0152 57.5665 23.0152C57.3541 23.0152 57.1674 22.8411 57.1674 22.6308C57.1674 22.4439 57.2961 22.3059 57.4141 22.2592C58.0127 22.0043 58.6241 21.8535 59.3986 21.8535C60.2567 21.8535 60.9132 22.0744 61.3594 22.5161C61.7692 22.9239 61.9816 23.5037 61.9816 24.2725V27.5621C61.9816 27.817 61.7928 28.0039 61.5482 28.0039C61.2908 28.0039 61.1149 27.817 61.1149 27.5855V27.0397C60.6922 27.5855 59.9886 28.074 58.918 28.074C57.7896 28.0697 56.6504 27.4305 56.6504 26.1987ZM61.1234 25.7336V25.1517C60.6772 25.0243 60.0787 24.8968 59.3385 24.8968C58.1993 24.8968 57.5665 25.3853 57.5665 26.1414V26.1647C57.5665 26.9208 58.2701 27.3625 59.0939 27.3625C60.2074 27.3604 61.1234 26.6872 61.1234 25.7336Z" fill="white"/>
<path d="M63.3164 24.9669V24.9436C63.3164 23.2467 64.6551 21.8047 66.4272 21.8047C67.4376 21.8047 68.1177 22.1891 68.6583 22.6754C68.7291 22.7328 68.7999 22.8496 68.7999 22.9897C68.7999 23.234 68.6004 23.4187 68.3666 23.4187C68.2486 23.4187 68.1434 23.372 68.0726 23.3147C67.6393 22.9197 67.1458 22.5947 66.4164 22.5947C65.1829 22.5947 64.2432 23.629 64.2432 24.9202V24.9436C64.2432 26.2454 65.2065 27.2797 66.4744 27.2797C67.1673 27.2797 67.7187 26.9654 68.1649 26.547C68.2228 26.4897 68.3065 26.4302 68.4223 26.4302C68.6454 26.4302 68.8321 26.6277 68.8321 26.8358C68.8321 26.9399 68.7849 27.0461 68.7141 27.114C68.1391 27.6832 67.4462 28.0782 66.425 28.0782C64.6551 28.0825 63.3164 26.6532 63.3164 24.9669Z" fill="white"/>
<path d="M70.3143 26.349V22.7216H69.8209C69.6085 22.7216 69.4219 22.5347 69.4219 22.3266C69.4219 22.1057 69.6085 21.9316 69.8209 21.9316H70.3143V20.5129C70.3143 20.2687 70.5031 20.0605 70.7606 20.0605C71.0073 20.0605 71.2175 20.2687 71.2175 20.5129V21.9316H72.7901C73.0132 21.9316 73.1998 22.1185 73.1998 22.3266C73.1998 22.5475 73.0132 22.7216 72.7901 22.7216H71.2175V26.2321C71.2175 26.9648 71.6273 27.2324 72.2387 27.2324C72.5562 27.2324 72.7193 27.1517 72.7901 27.1517C73.0003 27.1517 73.1784 27.3259 73.1784 27.5361C73.1784 27.6997 73.0733 27.8271 72.9209 27.8844C72.6635 27.9885 72.3803 28.0479 72.0285 28.0479C71.0523 28.0458 70.3143 27.5701 70.3143 26.349Z" fill="white"/>
<path d="M74.71 20.0499C74.71 19.759 74.9438 19.5742 75.2377 19.5742C75.5424 19.5742 75.7783 19.7611 75.7783 20.0499V20.2007C75.7783 20.4789 75.5445 20.6764 75.2377 20.6764C74.9438 20.6764 74.71 20.4789 74.71 20.2007V20.0499ZM74.7936 22.3266C74.7936 22.0824 74.9931 21.8742 75.2399 21.8742C75.4973 21.8742 75.6968 22.0717 75.6968 22.3266V27.5468C75.6968 27.8016 75.508 27.9991 75.2506 27.9991C74.9932 27.9991 74.7936 27.8016 74.7936 27.5468V22.3266Z" fill="white"/>
<path d="M77.209 24.9669V24.9436C77.209 23.2467 78.5477 21.8047 80.3798 21.8047C82.1991 21.8047 83.5378 23.2234 83.5378 24.9202V24.9436C83.5378 26.6405 82.1883 28.0825 80.3562 28.0825C78.5348 28.0825 77.209 26.6638 77.209 24.9669ZM82.6088 24.9669V24.9436C82.6088 23.6524 81.6348 22.5947 80.3541 22.5947C79.039 22.5947 78.1358 23.6523 78.1358 24.9202V24.9436C78.1358 26.2327 79.099 27.2797 80.3777 27.2797C81.6928 27.2797 82.6088 26.2327 82.6088 24.9669Z" fill="white"/>
<path d="M84.7695 22.3271C84.7695 22.0829 84.9691 21.8748 85.2158 21.8748C85.4732 21.8748 85.6727 22.0723 85.6727 22.3271V22.9791C86.0718 22.3271 86.7068 21.8047 87.7516 21.8047C89.219 21.8047 90.0771 22.7816 90.0771 24.2109V27.5473C90.0771 27.8021 89.8776 27.9996 89.6309 27.9996C89.3735 27.9996 89.1739 27.8021 89.1739 27.5473V24.4318C89.1739 23.3168 88.5625 22.6181 87.4941 22.6181C86.4493 22.6181 85.6749 23.3741 85.6749 24.5018V27.5473C85.6749 27.8021 85.4861 27.9996 85.2286 27.9996C84.9712 27.9996 84.7717 27.8021 84.7717 27.5473V22.3271H84.7695Z" fill="white"/>
<path d="M91.4582 27.3031C91.3766 27.2458 91.293 27.129 91.293 26.9782C91.293 26.768 91.4689 26.5938 91.692 26.5938C91.7735 26.5938 91.8572 26.6172 91.9151 26.6639C92.5373 27.0823 93.183 27.3031 93.8416 27.3031C94.5689 27.3031 95.0988 26.9315 95.0988 26.3496V26.3262C95.0988 25.7209 94.3823 25.4895 93.5842 25.2686C92.6338 25.001 91.5762 24.6761 91.5762 23.5717V23.5484C91.5762 22.5141 92.445 21.8281 93.6421 21.8281C94.2879 21.8281 94.9915 22.0256 95.5794 22.3399C95.6974 22.41 95.8025 22.5375 95.8025 22.7116C95.8025 22.9219 95.6266 23.096 95.4034 23.096C95.3219 23.096 95.2511 23.0726 95.2039 23.0493C94.6869 22.7583 94.1355 22.5842 93.6185 22.5842C92.902 22.5842 92.445 22.9558 92.445 23.457V23.4804C92.445 24.0496 93.1959 24.2704 94.0068 24.5147C94.9465 24.7929 95.957 25.1539 95.957 26.2349V26.2582C95.957 27.3966 95.0066 28.0592 93.7966 28.0592C92.9964 28.0592 92.1168 27.7682 91.4582 27.3031Z" fill="white"/>
<path d="M17.7141 7.65912C22.1936 7.65912 25.8386 11.2716 25.8386 15.7102V18.7281L27.4218 20.8284V15.7102C27.4218 10.4051 23.0668 6.0918 17.7141 6.0918C12.3572 6.0918 8 10.4072 8 15.7102C8 21.0111 12.3572 25.3244 17.7141 25.3244H26.7739C27.0035 25.3244 27.1858 25.2522 27.3446 25.095C27.5012 24.94 27.5763 24.7553 27.5763 24.5301C27.5763 24.3029 27.4991 24.116 27.3403 23.9546C27.1923 23.8038 27.0185 23.738 26.7739 23.738H17.7141C13.2304 23.738 9.58327 20.1382 9.58327 15.7123C9.58327 11.2695 13.2304 7.65912 17.7141 7.65912Z" fill="white"/>
<path d="M24.3173 19.7492V15.7098C24.3173 12.1335 21.3932 9.23242 17.7804 9.23242C14.1677 9.23242 11.2393 12.1335 11.2393 15.7098C11.2393 19.2862 14.1698 22.1809 17.7804 22.1809H24.3173H26.0915L24.3173 19.7492ZM22.6611 18.7574V20.5923H17.7289C15.0043 20.5923 12.7925 18.407 12.7925 15.7077C12.7925 13.0084 15.0043 10.8189 17.7289 10.8189C20.4535 10.8189 22.6611 13.0084 22.6611 15.7077V18.7574Z" fill="white"/>
</svg>

